<svg width="306" height="107" viewBox="0 0 306 107" fill="none" xmlns="http://www.w3.org/2000/svg">
<g clip-path="url(#clip0_17_528)">
<g clip-path="url(#clip1_17_528)">
<path d="M36.6104 53.3613C36.6104 63.3587 44.8445 71.4815 54.9789 71.4815C65.1133 71.4815 73.3475 63.3587 73.3475 53.3613C73.3475 43.3639 65.1133 35.241 54.9789 35.241C44.8445 35.241 36.6104 43.3639 36.6104 53.3613Z" fill="white"/>
<path d="M78.1614 66.6077C77.4013 67.9823 76.5145 69.232 75.5011 70.4817C70.4339 76.6051 62.8331 80.4791 54.2189 80.4791C39.144 80.4791 26.8561 68.3572 26.8561 53.3611C26.8561 38.49 39.144 26.3681 54.2189 26.3681C62.7064 26.3681 70.3072 30.2421 75.3744 36.1156C76.3879 37.2403 77.2746 38.49 78.0347 39.8646L104.257 32.6165C102.357 28.2427 99.9503 24.2437 97.1633 20.6196C87.1556 8.12289 71.7007 0 54.2189 0C24.3225 0 0 23.8688 0 53.3611C0 82.8534 24.3225 106.847 54.2189 106.847C76.6412 106.847 96.0232 93.3507 104.257 74.1057L78.1614 66.6077Z" fill="white"/>
</g>
</g>
<path d="M98.825 47.05C98.1083 47.05 97.4667 47.1917 96.9 47.475C96.35 47.7583 95.8833 48.1667 95.5 48.7C95.1167 49.2167 94.825 49.85 94.625 50.6C94.4417 51.35 94.35 52.1917 94.35 53.125C94.35 54.3917 94.5 55.475 94.8 56.375C95.1167 57.2583 95.6083 57.9333 96.275 58.4C96.9417 58.8667 97.7917 59.1 98.825 59.1C99.5583 59.1 100.283 59.0167 101 58.85C101.733 58.6833 102.525 58.45 103.375 58.15V61.325C102.592 61.6417 101.817 61.875 101.05 62.025C100.283 62.175 99.425 62.25 98.475 62.25C96.6417 62.25 95.125 61.875 93.925 61.125C92.7417 60.3583 91.8667 59.2917 91.3 57.925C90.7333 56.5417 90.45 54.9333 90.45 53.1C90.45 51.75 90.6333 50.5167 91 49.4C91.3667 48.2667 91.9 47.2917 92.6 46.475C93.3167 45.6583 94.1917 45.025 95.225 44.575C96.275 44.125 97.475 43.9 98.825 43.9C99.7083 43.9 100.592 44.0167 101.475 44.25C102.375 44.4667 103.233 44.7667 104.05 45.15L102.825 48.225C102.158 47.9083 101.483 47.6333 100.8 47.4C100.133 47.1667 99.475 47.05 98.825 47.05ZM122.88 53.05C122.88 54.4333 122.705 55.6917 122.355 56.825C122.021 57.9417 121.505 58.9083 120.805 59.725C120.121 60.5417 119.238 61.1667 118.155 61.6C117.088 62.0333 115.83 62.25 114.38 62.25C112.93 62.25 111.663 62.0333 110.58 61.6C109.513 61.15 108.63 60.525 107.93 59.725C107.246 58.9083 106.73 57.9333 106.38 56.8C106.046 55.6667 105.88 54.4083 105.88 53.025C105.88 51.175 106.18 49.5667 106.78 48.2C107.396 46.8333 108.33 45.775 109.58 45.025C110.846 44.2583 112.455 43.875 114.405 43.875C116.338 43.875 117.93 44.2583 119.18 45.025C120.43 45.775 121.355 46.8417 121.955 48.225C122.571 49.5917 122.88 51.2 122.88 53.05ZM109.855 53.05C109.855 54.3 110.013 55.375 110.33 56.275C110.646 57.175 111.138 57.8667 111.805 58.35C112.471 58.8333 113.33 59.075 114.38 59.075C115.463 59.075 116.33 58.8333 116.98 58.35C117.646 57.8667 118.13 57.175 118.43 56.275C118.746 55.375 118.905 54.3 118.905 53.05C118.905 51.1667 118.555 49.6917 117.855 48.625C117.155 47.5583 116.005 47.025 114.405 47.025C113.338 47.025 112.471 47.2667 111.805 47.75C111.138 48.2333 110.646 48.925 110.33 49.825C110.013 50.725 109.855 51.8 109.855 53.05ZM125.077 56.825V53.775H131.627V56.825H125.077ZM141.509 62H137.734V47.3H132.884V44.15H146.359V47.3H141.509V62ZM158.279 62L156.979 57.75H150.479L149.179 62H145.104L151.404 44.075H156.029L162.354 62H158.279ZM154.779 50.425C154.695 50.1417 154.587 49.7833 154.454 49.35C154.32 48.9167 154.187 48.475 154.054 48.025C153.92 47.575 153.812 47.1833 153.729 46.85C153.645 47.1833 153.529 47.6 153.379 48.1C153.245 48.5833 153.112 49.05 152.979 49.5C152.862 49.9333 152.77 50.2417 152.704 50.425L151.429 54.575H156.079L154.779 50.425ZM170.164 44.15C171.748 44.15 173.073 44.3 174.139 44.6C175.223 44.8833 176.031 45.3583 176.564 46.025C177.114 46.675 177.389 47.5583 177.389 48.675C177.389 49.3417 177.281 49.95 177.064 50.5C176.848 51.05 176.531 51.5 176.114 51.85C175.714 52.2 175.223 52.425 174.639 52.525V52.65C175.239 52.7667 175.781 52.975 176.264 53.275C176.748 53.575 177.131 54.0083 177.414 54.575C177.698 55.1417 177.839 55.8917 177.839 56.825C177.839 57.9083 177.573 58.8417 177.039 59.625C176.523 60.3917 175.773 60.9833 174.789 61.4C173.806 61.8 172.639 62 171.289 62H164.614V44.15H170.164ZM170.589 51.225C171.689 51.225 172.448 51.05 172.864 50.7C173.298 50.35 173.514 49.8417 173.514 49.175C173.514 48.4917 173.264 48 172.764 47.7C172.264 47.4 171.473 47.25 170.389 47.25H168.389V51.225H170.589ZM168.389 54.225V58.875H170.864C171.998 58.875 172.789 58.6583 173.239 58.225C173.689 57.775 173.914 57.1833 173.914 56.45C173.914 56 173.814 55.6083 173.614 55.275C173.431 54.9417 173.106 54.6833 172.639 54.5C172.173 54.3167 171.539 54.225 170.739 54.225H168.389ZM181.411 62V44.15H185.186V58.875H192.436V62H181.411ZM205.822 62H195.547V44.15H205.822V47.25H199.322V51.175H205.372V54.275H199.322V58.875H205.822V62ZM226.555 57.05C226.555 58.1 226.297 59.0167 225.78 59.8C225.264 60.5833 224.514 61.1917 223.53 61.625C222.564 62.0417 221.38 62.25 219.98 62.25C219.364 62.25 218.755 62.2083 218.155 62.125C217.572 62.0417 217.005 61.925 216.455 61.775C215.922 61.6083 215.414 61.4083 214.93 61.175V57.65C215.78 58.0167 216.655 58.3583 217.555 58.675C218.472 58.975 219.38 59.125 220.28 59.125C220.897 59.125 221.389 59.0417 221.755 58.875C222.139 58.7083 222.414 58.4833 222.58 58.2C222.764 57.9167 222.855 57.5917 222.855 57.225C222.855 56.775 222.697 56.3917 222.38 56.075C222.08 55.7583 221.672 55.4667 221.155 55.2C220.639 54.9167 220.047 54.6167 219.38 54.3C218.964 54.1 218.514 53.8667 218.03 53.6C217.547 53.3167 217.08 52.975 216.63 52.575C216.197 52.1583 215.839 51.6583 215.555 51.075C215.272 50.4917 215.13 49.7917 215.13 48.975C215.13 47.9083 215.372 47 215.855 46.25C216.355 45.4833 217.055 44.9 217.955 44.5C218.872 44.1 219.947 43.9 221.18 43.9C222.114 43.9 222.997 44.0083 223.83 44.225C224.68 44.4417 225.564 44.75 226.48 45.15L225.255 48.1C224.439 47.7667 223.705 47.5083 223.055 47.325C222.405 47.1417 221.739 47.05 221.055 47.05C220.589 47.05 220.189 47.125 219.855 47.275C219.522 47.425 219.264 47.6333 219.08 47.9C218.914 48.1667 218.83 48.4833 218.83 48.85C218.83 49.2667 218.955 49.625 219.205 49.925C219.455 50.2083 219.83 50.4833 220.33 50.75C220.83 51.0167 221.455 51.3333 222.205 51.7C223.122 52.1333 223.897 52.5833 224.53 53.05C225.18 53.5167 225.68 54.0667 226.03 54.7C226.38 55.3333 226.555 56.1167 226.555 57.05ZM235.5 44.15C237.8 44.15 239.475 44.65 240.525 45.65C241.591 46.6333 242.125 47.9917 242.125 49.725C242.125 50.5083 242.008 51.2583 241.775 51.975C241.541 52.675 241.15 53.3083 240.6 53.875C240.066 54.425 239.358 54.8583 238.475 55.175C237.591 55.4917 236.5 55.65 235.2 55.65H233.575V62H229.8V44.15H235.5ZM235.3 47.25H233.575V52.55H234.825C235.541 52.55 236.158 52.4583 236.675 52.275C237.191 52.0917 237.591 51.8 237.875 51.4C238.158 51 238.3 50.4833 238.3 49.85C238.3 48.9667 238.058 48.3167 237.575 47.9C237.091 47.4667 236.333 47.25 235.3 47.25ZM255.178 62L253.878 57.75H247.378L246.078 62H242.003L248.303 44.075H252.928L259.253 62H255.178ZM251.678 50.425C251.595 50.1417 251.486 49.7833 251.353 49.35C251.22 48.9167 251.086 48.475 250.953 48.025C250.82 47.575 250.711 47.1833 250.628 46.85C250.545 47.1833 250.428 47.6 250.278 48.1C250.145 48.5833 250.011 49.05 249.878 49.5C249.761 49.9333 249.67 50.2417 249.603 50.425L248.328 54.575H252.978L251.678 50.425ZM268.6 47.05C267.884 47.05 267.242 47.1917 266.675 47.475C266.125 47.7583 265.659 48.1667 265.275 48.7C264.892 49.2167 264.6 49.85 264.4 50.6C264.217 51.35 264.125 52.1917 264.125 53.125C264.125 54.3917 264.275 55.475 264.575 56.375C264.892 57.2583 265.384 57.9333 266.05 58.4C266.717 58.8667 267.567 59.1 268.6 59.1C269.334 59.1 270.059 59.0167 270.775 58.85C271.509 58.6833 272.3 58.45 273.15 58.15V61.325C272.367 61.6417 271.592 61.875 270.825 62.025C270.059 62.175 269.2 62.25 268.25 62.25C266.417 62.25 264.9 61.875 263.7 61.125C262.517 60.3583 261.642 59.2917 261.075 57.925C260.509 56.5417 260.225 54.9333 260.225 53.1C260.225 51.75 260.409 50.5167 260.775 49.4C261.142 48.2667 261.675 47.2917 262.375 46.475C263.092 45.6583 263.967 45.025 265 44.575C266.05 44.125 267.25 43.9 268.6 43.9C269.484 43.9 270.367 44.0167 271.25 44.25C272.15 44.4667 273.009 44.7667 273.825 45.15L272.6 48.225C271.934 47.9083 271.259 47.6333 270.575 47.4C269.909 47.1667 269.25 47.05 268.6 47.05ZM287.218 62H276.943V44.15H287.218V47.25H280.718V51.175H286.768V54.275H280.718V58.875H287.218V62Z" fill="white"/>
<defs>
<clipPath id="clip0_17_528">
<rect width="104.257" height="106.847" fill="white"/>
</clipPath>
<clipPath id="clip1_17_528">
<rect width="104.257" height="106.847" fill="white"/>
</clipPath>
</defs>
</svg>
